<svg width="17" height="21" fill="none" xmlns="http://www.w3.org/2000/svg"><path d="M14.6 3.4c.4-.2.8-.2 1 .1.4.5.1 1-.5 1.6l-5 4c.6-.5 1.8-1.5 2.5-.5.7 1.1-1.2 2.1-1.6 2.6-.4.4 1.6-1.8 2.5-.5.7 1-.6 1.7-1.4 2.4.4-.3 1.3-.6 1.7 0 .3.6 0 1-.4 1.4-.4.5-3.2 2.9-4.6 3.8-1 .8-3.4 2-5.5.8a4.5 4.5 0 0 1-2-5.4c.4-1.1 1.3-2.7 1-4.5-.1-1.3-.3-2.6-.8-3.3-.3-.4-.2-.8.1-1 .3-.3 1.2-.7 2.3.9.8 1.1 1.2 3 2.2 2.8 1.1-.1 8.1-5 8.5-5.2Z" stroke="#8CAF31" stroke-linejoin="round"/><path d="M4.6 2.2 6 3.6M11.5 2.2 10 3.6M8 1v2" stroke="#0B1E5B" stroke-linecap="round" stroke-linejoin="round"/></svg>