<svg width="17" height="19" fill="none" xmlns="http://www.w3.org/2000/svg"><path fill-rule="evenodd" clip-rule="evenodd" d="M6.23 1.02a7.67 7.67 0 0 1-.04.25A7.53 7.53 0 0 1 .47 7.26c-.36.08-.36.6 0 .68a7.62 7.62 0 0 1 .6.16 7.53 7.53 0 0 1 5.16 6.08l.07.47c.07.43.69.43.75 0l.07-.47a7.76 7.76 0 0 1 .04-.26 7.53 7.53 0 0 1 5.72-5.98c.36-.09.36-.6 0-.68a7.56 7.56 0 0 1-5.76-6.24L7.05.55C7 .12 6.37.12 6.3.55l-.07.47Zm.45 2.02A8.5 8.5 0 0 1 2.4 7.6a8.5 8.5 0 0 1 4.27 4.55 8.5 8.5 0 0 1 4.27-4.55 8.5 8.5 0 0 1-4.27-4.56Z" fill="#8CAF31"/><path fill-rule="evenodd" clip-rule="evenodd" d="M12.33 11.93a3.9 3.9 0 0 1-2.92 2.69c-.19.04-.19.31 0 .35a4.27 4.27 0 0 1 .98.35 3.92 3.92 0 0 1 2.07 2.88l.03.18c.03.21.34.21.38 0l.03-.18a3.95 3.95 0 0 1 2.96-3.21l.08-.02c.19-.04.19-.31 0-.35a4.3 4.3 0 0 1-.97-.35 3.93 3.93 0 0 1-2.07-2.88l-.03-.18c-.04-.21-.35-.21-.38 0l-.03.18a3.95 3.95 0 0 1-.13.54Zm.35 1.52a4.9 4.9 0 0 1-1.31 1.34c.52.37.96.82 1.3 1.35A4.9 4.9 0 0 1 14 14.8a4.9 4.9 0 0 1-1.31-1.34Z" fill="#0B1E5B"/></svg>
