<svg width="38" height="34" viewBox="0 0 38 34" fill="none" xmlns="http://www.w3.org/2000/svg"> <path d="M0 3.98145V28.9814H2V3.98145H0ZM5 33.9814H32V31.9814H5V33.9814ZM0 28.9814C0 31.7429 2.23858 33.9814 5 33.9814V31.9814C3.34315 31.9814 2 30.6383 2 28.9814H0Z" fill="#0B1E5B"/> <path d="M21.1679 17.2326L20.499 17.9759L21.1679 17.2326ZM22.6506 17.0705L23.4644 17.6518L22.6506 17.0705ZM15.2493 13.4529L14.414 12.903L15.2493 13.4529ZM16.7534 13.2595L16.0845 14.0028L16.7534 13.2595ZM7.83521 26.5314L16.0845 14.0028L14.414 12.903L6.16479 25.4315L7.83521 26.5314ZM16.0845 14.0028L20.499 17.9759L21.8369 16.4893L17.4224 12.5162L16.0845 14.0028ZM23.4644 17.6518L32.8137 4.56268L31.1863 3.40021L21.8369 16.4893L23.4644 17.6518ZM20.499 17.9759C21.3861 18.7743 22.7706 18.623 23.4644 17.6518L21.8369 16.4893L21.8369 16.4893L20.499 17.9759ZM16.0845 14.0028L17.4224 12.5162C16.5126 11.6974 15.0872 11.8806 14.414 12.903L16.0845 14.0028Z" fill="#8CAF31"/> <path d="M24.1604 4.75872L32.4278 3.16817L34.444 10.9476" stroke="#8CAF31" stroke-width="2"/> </svg>