<svg width="65" height="67" fill="none" xmlns="http://www.w3.org/2000/svg"><path d="M.49 19.38c.1.35.07.1.12 0H.49Z" fill="#6F71F6"/><path d="M.6 19.41h.1s-.07-.03-.1 0Z" fill="#6F71F6"/><path d="M1.3 19.34c0 .31-.34 0-.23.47.25.19.41-.03.23-.47Z" fill="#6F71F6"/><path d="m.98 19.2.09.21-.05-.39-.04.17Z" fill="#6F71F6"/><path d="m.8 19.04.05.06.08-.3-.13.24Z" fill="#6F71F6"/><path d="m1.83 19.27-.1.12c-.27-.22-.1-.43-.29-.58-.17.1.24.63 0 .64.15.26.34-.17.51.27.22.05-.13-.25-.12-.45Z" fill="#6F71F6"/><path d="M10.88 11.6h.13l-.09-.1-.04.1Z" fill="#6F71F6"/><path d="m7.81 14.47-.14-.06c.05.05.09.08.14.06Z" fill="#6F71F6"/><path d="M22.7 9v.13V9Z" fill="#6F71F6"/><path d="M13 9.72a.27.27 0 0 0 .08-.1.1.1 0 0 0-.08.1Z" fill="#6F71F6"/><path d="M9.87 11.38h.11a.15.15 0 0 0-.1 0Z" fill="#6F71F6"/><path d="M4.12 18.73c.06 0 .08 0 .08-.09s-.09-.05-.08.09Z" fill="#6F71F6"/><path d="M4.9 18.3s.02.03 0 0Z" fill="#6F71F6"/><path d="M5.42 18.08s.03.06 0 0Z" fill="#6F71F6"/><path d="M4.2 18.64c.15.14.44.66.23 0l-.06-.07c.12.11.08-.16.13-.21l-.09-.13a.41.41 0 0 1-.16 0c-.13-.06-.04.25-.05.41Z" fill="#6F71F6"/><path d="M8.85 13.1c-.06-.1-.08 0 0 0Z" fill="#6F71F6"/><path d="M8.4 13.88h.06s-.06-.04-.07 0Z" fill="#6F71F6"/><path d="M8.53 13.84h-.07s.06.04.07 0Z" fill="#6F71F6"/><path d="M6.66 14.94s.01-.01 0 0Z" fill="#6F71F6"/><path d="M34.23 5.71c0 .08-.14-.06-.21-.08.08.44.23-.1.24.32 0 0 .06-.1.07-.17l-.25-.33c-.02.2.13.1.15.26Z" fill="#6F71F6"/><path d="M23.72 9.49c.1.16.11.22.24.27 0-.29-.36-.62-.37-1h-.1c.14.22.22.47.23.73Z" fill="#6F71F6"/><path d="m23.45 8.8-.06-.08h-.07a.4.4 0 0 0 .13.08Z" fill="#6F71F6"/><path d="M32.43 6.4h-.08c.06.05.08.04.08 0Z" fill="#6F71F6"/><path d="M15.19 14.49v.15a.19.19 0 0 0 0-.15Z" fill="#6F71F6"/><path d="M24.65 4.18c.16.44 0-.06.23.14v-.26c-.14-.06-.17.07-.23.12Z" fill="#6F71F6"/><path d="m22.88 8.86-.32.12.14.06c-.06-.23.3.09.18-.18Z" fill="#6F71F6"/><path d="m23.22 4.58-.16-.24c0 .69-.77.09-.64 1-.82-.71.15.92-.59.29l.07.12c-1.2.4-2.63.53-3.47 1.48L18.35 7c-1.85.53-3.33 1.71-5.08 2.4-.07.25.21.59.18.86-.07 0-.19.1-.3-.12 0-.18-.11-.34-.11-.44-.18.11-.55 0-.58.33l.28.21c0 .16-.15.13-.22.14 0-.16-.28-.42-.27-.52 0 .88-.42-.16-.59.26.16.61.19 1.26.07 1.88l-.21-.09c.18-.08-.22-.44 0-.51-.26-.09-.3.25-.52.24.11.12.17.28.17.44-.15 0-.3-.33-.44-.3v-.25c-.19-.19-.11.14-.16.22-.15-.24-.35-.2-.46-.5 0 .42-.14.26-.21.56.31.18.12.35.25.55l.15-.19c-.37 0 .07-.09-.16-.5.23.12.16.78.35.61-.16.35-.3.18-.4.67.12-.16.1.3.25.4-.2.11-.12-.14-.33-.38-.1.07-.27-.16-.21.21-.25 0-.13-.34-.31-.46-.08-.33.7.11.17-.8.1-.07 0-.49.18-.54-.18-.06-.5-.29-.55 0l.26.54c-.11.07 0 .44-.06.43 0-.17-.22-.36-.29-.27-.07.1.09 0 .12.13-.15.12 0 .49-.14.69.22.1.43.21.61.36.14.39-.08.11-.15.2a.18.18 0 0 0-.06-.14v.23c-.29-.06-.24-.56-.5-.65-.27-.26-.08.25-.25.12l.06.08h-.06c-.09.1-.22.13-.11.43-.08-.12-.08.08-.08.2 0 .1 0 .53-.3.13a.36.36 0 0 1-.39-.24h-.27l-.16-.38c-.15.2 0 .4 0 .85-.25-.15-.42.15-.45.33a.1.1 0 0 0-.08.05l.16.1c-.17.06-.06.24-.16.29-.1.05 0 0 0 0H7l-.08-.1c-.32-.33-.09.3-.29.23v-.05s-.48-.53-.36-.2v.14h-.08.08v.19h-.23c-.06 0-.09 0-.1.11l-.11-.14c-.06.06-.1 0-.12-.07-.5-.41-.24.45-.73.13.07.27.24.33.31.46.04.21.04.43 0 .64-.29-.29-.8-.42-1-.95-.23.07.22.28.2.5.16.07.3.19.39.33.15.26 0 .44-.1.4l-.15-.42c-.14.24.19.8.26 1.24-.24-.07-.32-.47-.52-.79l-.12.17-.15-.28c-.07.13 0 .41-.17.37 0-.33-.36-.16-.39-.6-.13-.05.12.52-.11.15.09.34.15.12.24.2.25.42-.08.3-.12.46-.12-.22-.07-.3-.26-.39.06.18.05.35-.12.17.14.29-.11.13-.18.14a.66.66 0 0 1 .39.46c0 .14 0 .22-.18.25l.16.1c.09.47-.34-.22-.44 0a2.6 2.6 0 0 0 0-.48 3.8 3.8 0 0 1-.1.65l-.34-.35c.09.22-.16 0 0 .34-.26-.11 0-.41-.12-.63-.31-.09.07.56-.35.22l-.07-.3c-.08 0-.13.23-.21.1.05.1.06 0 .11 0 .24.6-.12.56.2 1.14h.11c-.08.18 0 .64-.19.48-.19-.16-.15-.43-.17-.61-.15 0 .21.71 0 .73.14.05.22.27.25.45.11 0 .36 0 .2-.22h-.06a1 1 0 0 1-.06-.33c.13-.07.19.24.28.34.25 0-.28-.6-.08-.68l.08.1c0-.2.15-.29 0-.67.27.35.14-.26.34-.07.44.84-.35.1-.23.62.18.12.14.43.19.64l.14-.52c.08.1.38.48.29.14.07-.16-.13-.49 0-.43.05.09.08.18.1.28.14 0 0-.23 0-.34 0-.1.12.37.25.42 0-.38.23 0 .32-.08-.28-.46.08-.86-.35-1.17l.08-.45c.2.21.17.76.43 1.13l-.2.08c.33.58.21-.59.67 0 .12 0 .05-.09.39.11l-.3-.52c.17.07.34.35.4.44a.21.21 0 0 1 .16-.08c.02.07.02.14 0 .21.22.26.19.14.14 0-.05-.14.05-.17.11-.19v.22a.33.33 0 0 0 0-.24.12.12 0 0 0 .05-.08 1.78 1.78 0 0 0-.42-.47c.34.09.47-.12.89.23.06.15.08.39.11.4.03.01.12-.3 0-.53.08.13.18.26.23.26.03.04.07.06.12.07-.17-.44.12-.32.07-.53-.07 0-.12 0-.17.05-.06-.32-.14-.68 0-.49 0 .35.38.36.21.59.42.46-.11-.42.15-.3l.22.14c.13.32-.1.24 0 .35l.06-.08c0 .27-.33.26-.33.7h.44c.26-.6 1-.45 1.07-1.3 0 0 0-.1-.09-.22l.06.06v-.27c.22.25.41.23.66.39a.85.85 0 0 1-.3-.37c-.14-.32-.19-.46 0-.4.11.21 0 .25.21.37a.3.3 0 0 1-.09-.3c.14.1.27.07.38.29.11.22-.07 0-.1 0s.23.13.22.36l.09-.13c.17.15.1.32.19.42.14-.25 0-.8.12-1.06.06.16.13.32.22.47.22.08.05-.69.2-.8 0 .15 0 .12-.06.22a3.43 3.43 0 0 1 1.75 0l-.12-.57.3.27c.66.07.89-.44 1.3-.83.14-.1.27.3.41.41.36-.11.16-.71.42-1 0 .17.17.64.32.6-.05-.16-.14-.4 0-.35v.18c.2.18.16-.07.37 0 .28-.15.38-.65.34-1.32.28-.07.24.56.34.64-.27-.09-.08.15 0 .35 0-.19.1-.34.32 0 .12-.09.2-.1.2-.4 0 .15-.15-.01-.17-.21.17.07.37-.2.58.25.58-.39 1.33-.64 2-1 0-.29-.13 0-.15-.24 0-.39.21.1.22-.22l.07.28c.21-.06.2-.62.27-.94.11.29.27.15.2.4.07-.09.79 1.1.74.81l-.68-1.11c0-.12.12-.11.07-.18.2.18.42.41.48.38.17.28 0 .28-.08.32.23.5.41.18.52.7.13-.18-.15-.25-.14-.48h.2l-.19-.11c0-.21-.1-.6.2-.4l-.07-.57c.21.38.15 0 .28.06l.07.28c.11-.07.2 0 .33.08.1.37-.14 0 0 .3l.18.06c-.11-.22-.12-.43-.27-.52-.09-.47-.19-.84.12-1 .31.31 0 .4.26.75.38 0-.11-1.16.09-1.2.2-.04.11-.3.33-.43 0 .29.3.2.46.41V11c0-.11.14 0 .21.15-.18-.34.14-.47.22-.71l-.18-.28c.08-.16.16-.43.33-.42.14-.19 0-.43 0-.82.22.26.39.56.49.88-.12-.13-.17 0-.3 0-.12.37 0 1.1-.32 1.06.25.77.13-.16.37 0v.08a.81.81 0 0 0 0 .7c.11-.15-.24-.77.09-.56 0-.26.42.25.53.26 0-.32-.32-.89 0-.89l.1.45c.25-.12-.17-.64.07-.74-.11 0-.12-.43-.28-.37 0-.25.12-.37.31-.32 0-.08-.06-.14-.12-.28-.28-.21-.09.38-.4 0l.11.48a.82.82 0 0 1-.39-.64s0 .11-.1 0c-.34-.64.27.15.05-.42l-.07.09c-.25-.4 0-.48.16-.51.23.14.4.15.55.45L23 8.9c.21.2.15-.26.26-.3l.08.08V8.6c.05.02.09.06.12.1.1 0 .14-.28.28-.23l-.15-.26.07.16c-.09 0-.29-.09-.33-.32-.04-.23.4.22.56.44.16.44-.19.09-.21.28.26.38.21-.06.54.12.14.49-.23.11-.07.55.2 0 .08-.35.3-.31.1.22-.07.32.08.58l.17.08c-.25.15.32.54.17.75.2.14 0-.44.23-.22-.13-.17-.42-.48-.38-.72l.22.06c.17.19.08.56.27.7l.08-.24C25.12 10 25 10 25 9.75c.16.1-.11-.59-.1-.84.1 0 .17 0 .28.1 0-.5.3-.62.3-1.09 0 .33.23.46.41.62-.13.13.08.56.22.82.08-.09-.08-.55-.2-.67.25.09 0-.35.24-.13.24.22.17.44.27.58.18-.06-.2-.54 0-.52 0 .05.03.1.06.15.14 0 .15-.21.07-.43.38.5.27-.2.51.34.17-.26-.18-.27-.23-.48-.05-.21.26-.18.36-.13.1.05 0 .22-.13.16l.23.35c.43.12-.23-.94.22-.75-.05.26.09.3.15.6 0-.11.27-.12 0-.34a.74.74 0 0 1 .34 0c.05-.2.05-.4 0-.61.17 0 .41.17.56.3.2-.43.7-.11.9-.56.29-.06-.36-.44-.08-.56.2.48.31.23.52.43.44.07.4-.62.86-.46 0 .1.08.22 0 .26.3 0 .44-.15.66-.23v.06c.52.21.61-.39.9-.67 0 .07.08.25.09.32.22 0 .53-.06.45-.53.43.34.07-.21.55.1.06.07 0 .08 0 .11.21.09.28 0 .44 0 .15-.43-.07-1.06.36-1.05.32.61-.13.26.1.76 0-.15 0-.3.18-.2.03.14.08.27.14.4.15.13 0-.79 0-.73 0-.12-.11-.17-.17-.12-.11-.42.32-.2.41-.43-.06 0-.29 0-.37-.35.3 0 .07-.61.1-.94.34.19.11.6.36 1 .11.14.37.45.37.66.22 0 .17-.44.3-.61l.05.12c.2-.16.18-.82.49-.66L36 3.8c0-.09.14-.11.07-.39.1.21.34.32.36.52-.22-.71.32-.66.13-1.33.13.17.23.37.28.58-.17 0-.28-.09-.23.21.11-.07.3 0 .34.21-.08-.46.13-.77 0-1.2.21.14.37.34.46.58.26-.39-.7-1-.28-1.16.35.24 0 .54.35.52v.08c.62.78-.18-.69.05-.76.27.46 0 .41.34.68.13-.22-.13-1 .14-.91l.07.22c.11-.1.4-.12.5-.22.06.09 0 .08 0 .12.32.07 0-.29.33 0l-.06-.26c-.18-.12-.48-.26-.46.07 0-.33-.49-.51-.63-1l.06.18a2.37 2.37 0 0 0-1.63-.51c0 .62-.52 0-.63.49.23.57 0 .13-.17.36.09-.13-.19-.43-.3-.47.03.1.03.22-.01.33-.14-.17-.65-.48-.57-.05-.23-.11-.06-.19-.08-.32-.2-.26 0 .28-.15.11v-.1c-.2.13-.4.05-.66.09.25.55-.12.31-.12.56-.06-.2-.23-.15-.34-.22l.08.47c0 .4-.29-.16-.35.1l.09.08c0 .22-.49 0-.75-.21-.5 1.58-1.89.19-2.84 1 0 .2.2.25.25.52-.08.12-.11.11-.21.16.16.11.06-.07.12.09l.08-.23s0 .06.07.13 0-.21.11-.22c0 .19.15.61-.06.52a.32.32 0 0 1 0-.14c-.12 0 0 .22-.17.15s0 .07-.15-.1L29 3.12c.09.56-.33.19-.4.17-.15-.38.15-.21 0-.6l-.24-.21.13.29h-.19v-.06c0 .12.07.24 0 .16-.07-.08-.08-.11-.07-.13v.21c-.09-.33-.15 0-.3-.39-.45 0-.24.69-.8.38.14.14.17.6 0 .58a.33.33 0 0 1-.18-.27l-.05.24c-.42-.46-.4 0-.74-.1l-.07-.16c0 .22 0 .41-.18.42l-.13-.31c-.27-.14.2.7-.08.59.16.33.35.44.52.74-.2-.31-.42-.26-.26-.05-.11.22-.13.06-.18 0v.25c-.13 0-.25-.4-.3-.61.06.41-.19.22-.35.23v-.17h-.2c0 .32-.14.41-.36.35l-.11-.48c-.21-.17 0 .18 0 .26-.06.3-.24 0-.45-.18-.01.58-.89-.45-.79.31ZM5.9 15.18h.05c-.02.14-.01.23-.05 0Zm1.5-.6c-.09.26-.13 0-.21-.09.23 0 .26-.15.48-.08a1.64 1.64 0 0 1-.17-.26c.07 0 .18.06.31.27.13.47-.61-.05-.41.16Zm-2.2 3.73v-.1.1Zm.67-.8c.04.06.1.11.15.15-.08-.11-.14-.2-.15-.15Zm2-.32c.12.17.19.07.23 0a.46.46 0 0 0-.25 0h.02Zm10.71-5.51c0 .1 0 .32.13.41 0-.18.18 0 .1-.2a1.36 1.36 0 0 0-.25-.21h.02Zm4.37-4a2.8 2.8 0 0 0 .31.66h.12c-.3-.59-.27-.73-.45-.63l.02-.03Z" fill="#6F71F6"/><path d="M23.33 8.33s-.09-.07-.18-.1a.24.24 0 0 0 .18.1Z" fill="#6F71F6"/><path d="M1.43 17.74v-.08l-.19-.13c-.04.29.01.58.14.84 0-.34.18-.25.33-.43l-.28-.2Z" fill="#6F71F6"/><path d="M2.47 19.62c.06.1.14.18.22.25l-.06-.19-.16-.06Z" fill="#6F71F6"/><path d="m4.87 19.49-.23-.08c.02.18.36.36.23.08Z" fill="#6F71F6"/><path d="M2.67 16.8v.2c.15.12.24 0 .15-.17-.03.17-.07-.08-.15-.04Z" fill="#6F71F6"/><path d="M5.32 19.31c-.12-.37.24.08.11-.27 0 .12-.27-.04-.11.27Z" fill="#6F71F6"/><path d="M3.6 16.07c-.23-.3-.17 0-.3 0 .08-.07.37.25.3 0Z" fill="#6F71F6"/><path d="M5.69 17.91c.12.25 0 .26-.06.24a.68.68 0 0 1 0-.26c-.02.13-.05.26-.1.38.18.13.39.16.52.48-.02-.31-.15-.6-.36-.84Z" fill="#6F71F6"/><path d="M3.81 15.91c-.13-.06-.3-.26-.39-.19.11.16.26.4.36.3l.1.31c.21.16-.23-.33-.07-.42Z" fill="#6F71F6"/><path d="m6.49 18.35-.12-.11c0 .29-.21.25-.1.65a.68.68 0 0 0 .22-.54Z" fill="#6F71F6"/><path d="m4.5 16.24-.2-.41c-.14 0 .08.13.08.25h-.1c.1-.08.16.36.21.16Z" fill="#6F71F6"/><path d="m4.65 15.61.07-.25-.34-.36c-.1.22.12.23.27.61Z" fill="#6F71F6"/><path d="m5 15.79.06.07-.06-.71c-.03.21-.03.43 0 .64Z" fill="#6F71F6"/><path d="M9 17.07c-.06-.19-.29-.34-.14-.17.15.17.33.29.14.17Z" fill="#6F71F6"/><path d="M6.87 14.1c.13.1.22-.26.25-.42-.07.14-.38.2-.25.41Z" fill="#6F71F6"/><path d="M7.14 13.61v.07-.07Z" fill="#6F71F6"/><path d="M10.54 11c-.09 0-.17.14-.1.33.08-.15.13-.31.14-.48 0 0-.15-.1-.04.15Z" fill="#6F71F6"/><path d="M11.47 10.61c0 .13-.08.11 0 .27.08.16.1-.17 0-.27Z" fill="#6F71F6"/><path d="M20 12.71c.13 0 .14-.05 0-.29-.13.05 0 .18 0 .29Z" fill="#6F71F6"/><path d="m20.05 12.31.07.12.16.17-.23-.29Z" fill="#6F71F6"/><path d="M20.82 12.4v.12c.04-.05.05-.1 0-.13Z" fill="#6F71F6"/><path d="m20.75 12.48.06.14a.3.3 0 0 1 0-.08s-.01.01-.06-.06Z" fill="#6F71F6"/><path d="m21 12.35-.3-.33c0 .25.23.13.32.6l-.02-.27Z" fill="#6F71F6"/><path d="M21.36 12.05c.17.07 0-.6.31-.18.19-.39-.44-.73-.18-1.07-.44-.08.27 1-.15.85.28.21.02.27.02.4Z" fill="#6F71F6"/><path d="M20.93 11.31c.1.24.25.19.21 0-.05.01-.27-.31-.21 0Z" fill="#6F71F6"/><path d="m21.86 11.55.18.13-.05-.16-.13.03Z" fill="#6F71F6"/><path d="M22.26 11.47v.31c.02-.12.16-.17 0-.3Z" fill="#6F71F6"/><path d="M22.91 11.56c.13 0-.09-.6-.2-.38h.05c.03.1.24.27.15.38Z" fill="#6F71F6"/><path d="M23.58 10c-.07 0-.1.12 0 .25l.1-.21-.1-.04Z" fill="#6F71F6"/><path d="M22.82 8.56c-.23-.34-.13.11-.3 0 .16.05.17.11.3 0Z" fill="#6F71F6"/><path d="M24 10.47c0 .18-.08.11-.13.11.13.2.22.1.13-.1Z" fill="#6F71F6"/><path d="M24.22 10.22c.12.12.1.21.18.3.1.1.3 0 .26-.2-.17-.24-.3-.5-.4-.77-.12.22.13 1-.22.47l.17.72c.2.03-.1-.5.01-.52Z" fill="#6F71F6"/><path d="m23.25 9.17.2.17a.38.38 0 0 1 0-.37c-.31-.46-.16.14-.2.2Z" fill="#6F71F6"/><path d="m25.08 9.44.15-.21-.08.01-.07.2Z" fill="#6F71F6"/><path d="m25.28 9.53.08.13.03-.32-.11.19Z" fill="#6F71F6"/><path d="m25.58 9.59-.04-.01-.06.17.1-.16Z" fill="#6F71F6"/><path d="m26.05 9.47-.14-.18c0 .07-.24-.1-.09.17 0-.12.12-.14.23.01Z" fill="#6F71F6"/><path d="M25 3.7c.03.14.1.26.19.37l-.11-.37s-.08.07-.08 0Z" fill="#6F71F6"/><path d="M25.5 4.13v-.46c-.2 0-.09.34-.2.48.11.09.07-.23.2-.17v.15Z" fill="#6F71F6"/><path d="M28.68 2.93c.11.26.13.2.09.42.08-.23.24-.24.4-.37-.11-.14-.11-.47-.14-.37l-.13.24-.05-.18c-.23-.12.05.33-.17.26Z" fill="#6F71F6"/><path d="M37.94 1.65c.04.12.1.23.19.33.06-.19-.2-.29-.19-.33Z" fill="#6F71F6"/><path d="M20.71 47.84c.3.19.12 0 .11 0h-.1Z" fill="#6F71F6"/><path d="M20.82 47.79h.08c-.07-.05-.08-.03-.08 0Z" fill="#6F71F6"/><path d="M21.3 47.32c.2.24-.23.24.13.49.3-.02.28-.26-.14-.49Z" fill="#6F71F6"/><path d="m20.95 47.41.21.11-.28-.26.07.15Z" fill="#6F71F6"/><path d="m20.72 47.4.09.02-.14-.27.05.25Z" fill="#6F71F6"/><path d="M21.64 47v.16c-.34 0-.35-.26-.58-.27-.07.17.58.33.39.5.29.1.14-.33.56-.1.21-.15-.25-.17-.37-.29Z" fill="#6F71F6"/><path d="M23.44 38.17s-.03-.03 0 0Z" fill="#6F71F6"/><path d="M24.48 36h.13-.13Z" fill="#6F71F6"/><path d="M23.43 39.91h-.15c.06.09.12.09.15 0Z" fill="#6F71F6"/><path d="m33.8 29.1.08.1-.07-.11-.02.01Z" fill="#6F71F6"/><path d="M25.45 33.32a.25.25 0 0 0 0-.12.09.09 0 0 0 0 .12Z" fill="#6F71F6"/><path d="M23.51 36.27h.09a.13.13 0 0 0-.09 0Z" fill="#6F71F6"/><path d="M23 45.25v-.11c0-.11-.07.02 0 .11Z" fill="#6F71F6"/><path d="M23.62 44.05s.05.03 0 0Z" fill="#6F71F6"/><path d="M23 45.14c.2 0 .75.28.2-.1h-.09c.16 0 0-.16 0-.23l-.1-.07-.13.09c-.2 0 .06.17.12.31Z" fill="#6F71F6"/><path d="M23.54 38.24c-.11-.06-.09 0 0 0Z" fill="#6F71F6"/><path d="M23.58 39.13s0-.04 0 0Z" fill="#6F71F6"/><path d="M23.67 39a.2.2 0 0 1 0 .06s.02 0 0-.06Z" fill="#6F71F6"/><path d="M22.75 40.9s.01-.02 0 0Z" fill="#6F71F6"/><path d="M43.34 23.57c0 .08-.13 0-.2-.06.17.42.2-.12.3.28v-.17l-.3-.29c.03.19.15.07.2.24Z" fill="#6F71F6"/><path d="M34.87 29.22c.15.12.18.17.31.18-.15-.25-.54-.47-.67-.79 0 0 0 .06-.09.06.19.15.34.34.45.55Z" fill="#6F71F6"/><path d="m34.38 28.66-.09-.06h-.07c.05.03.1.05.16.06Z" fill="#6F71F6"/><path d="M41.84 24.46h-.07c.07.05.09.03.07 0Z" fill="#6F71F6"/><path d="m29.56 36.55.06.14s-.02-.09-.06-.14Z" fill="#6F71F6"/><path d="M33.7 29.84a.14.14 0 0 0-.1 0h.1Z" fill="#6F71F6"/><path d="M34 24c.28.37 0-.06.26.08l-.11-.25c-.09-.02-.09.1-.15.17Z" fill="#6F71F6"/><path d="M35.93 22.15H36a.1.1 0 0 0-.07 0Z" fill="#6F71F6"/><path d="m33.9 28.88-.26.21h.15c-.13-.18.27.01.1-.2Z" fill="#6F71F6"/><path d="m32.78 24.77-.22-.18c.17.66-.71.32-.3 1.12-1-.41.44.82-.46.46l.11.09c-1 .74-2.26 1.38-2.68 2.56l-.15-.13c-.7.59-1.34 1.26-1.89 2-.51.8-1.07 1.57-1.68 2.31 0 .25.46.43.55.68 0 0-.11.17-.31 0 0-.18-.25-.25-.3-.34-.1.18-.49.23-.36.56l.35.06c.06.14-.07.17-.12.22-.12-.12-.46-.24-.48-.33.41.77-.46 0-.4.5.44.45.78.99 1 1.58h-.22c.11-.16-.41-.28-.25-.45-.27 0-.13.36-.32.46.16.06.34.19.36.3-.14 0-.42-.14-.52 0l-.15-.24c-.25-.07 0 .18 0 .27-.25-.13-.4 0-.64-.2.23.36 0 .29.11.58.36 0 .28.24.49.35v-.24c-.33.15 0-.11-.4-.36.26 0 .55.6.62.36 0 .38-.17.31 0 .77 0-.19.24.2.42.2-.11.2-.17 0-.47-.15-.06.11-.31 0-.07.28-.23.09-.29-.22-.51-.24-.24-.24.65-.24-.27-.77 0-.09-.21-.42-.11-.54-.19 0-.58 0-.47.28l.49.33c-.06.11.27.35.17.4-.11-.14-.37-.2-.39-.09-.02.11.1 0 .18 0 .08 0 .26.42.23.66.24-.03.47-.03.71 0 .33.26 0 .13 0 .24 0 .11 0-.07-.13-.09l.12.2c-.28.09-.5-.35-.77-.3-.27.05.08.25-.14.23h.1c0 .14-.1.23.15.42-.13-.06 0 .11 0 .19s.3.45-.18.28a.38.38 0 0 1-.45 0l-.23.14-.34-.2c0 .24.2.35.48.69-.29 0-.26.34-.18.5v.08H23c-.1.14.09.22 0 .32s.06 0 0 0h-.06l-.13-.05c-.44-.1.11.3-.09.35v-.06c0-.06-.69-.16-.4 0l.06.12h-.08.08c.09.09.2.19.12.15l-.17.15c-.07 0 0 .08 0 .14h-.16c0 .08-.1 0-.14 0-.64 0 .07.5-.52.51.22.18.39.14.53.2.15.15.27.33.36.52-.41-.08-.89.11-1.36-.21-.14.19.34.1.46.29a.77.77 0 0 1 .5 0c.27.12.26.34.16.36l-.37-.24c0 .26.63.52 1 .83-.23.08-.53-.19-.89-.33v.21l-.29-.15c0 .14.28.3.1.39-.22-.24-.38.08-.67-.24-.14 0 .4.33 0 .18.28.21.19 0 .31 0 .45.19.12.28.19.44-.24-.11-.24-.2-.45-.16.16.11.26.24 0 .2.29.15 0 .16-.06.22a.63.63 0 0 1 .58.12c.09.11.13.19 0 .3h.17c.37.31-.39 0-.33.25l-.31-.35c.12.18.23.36.32.55l-.46.04c.2.12-.09.14.2.27-.26.07-.29-.29-.49-.41-.29.12.41.39-.13.38l-.24-.19c0 .06 0 .26-.09.2.1.05.07 0 .09 0 .57.31.27.49.89.74l.08-.07c.06.19.42.47.16.48-.26.01-.38-.24-.52-.36-.09.11.62.4.49.53a.64.64 0 0 1 .48.19c.08-.07.28-.2 0-.28h-.07a.88.88 0 0 1-.26-.22c0-.12.3.07.43.1.18-.15-.6-.29-.5-.47h.13c-.12-.16-.08-.3-.44-.5.43.1-.06-.28.21-.26.87.38-.2.28.23.61.21 0 .38.24.56.37L22 46c.13 0 .6.14.31-.06 0-.16-.41-.3-.24-.34.1.04.18.09.26.15.12-.06-.16-.17-.2-.27.12-.06.32.21.46.18-.28-.27.16-.13.19-.24-.51-.19-.47-.69-1-.7l-.21-.39c.28 0 .59.49 1 .63l-.11.17c.62.26-.2-.57.53-.36.07-.08 0-.1.36-.13l-.54-.24c.2 0 .4.04.57.13a.17.17 0 0 1 .08-.16c.07.06.13.11.14.16.33.08.23 0 .09-.1s-.07-.16 0-.21l.17.15a.31.31 0 0 0-.15-.18.12.12 0 0 0 0-.1 2.3 2.3 0 0 0-.61-.14c.32-.11.29-.34.82-.29.15.08.3.26.33.25.03-.01-.08-.29-.32-.41v-.06c.14 0 .29.11.34.08.05.02.1.02.14 0-.4-.26-.1-.32-.27-.46a.15.15 0 0 0-.1.13c-.24-.22-.52-.46-.26-.4.18.28.51.09.51.36.61.14-.34-.28-.07-.33h.27c.29.18.06.24.19.28V43c.18.2-.11.37.15.71l.34-.22c-.14-.6.54-.86.07-1.57a.9.9 0 0 0-.24-.12h.08l-.18-.2c.25.04.5.04.75 0a1 1 0 0 1-.45-.16c-.29-.19-.41-.27-.23-.32.21.12.16.19.38.21-.13 0-.26-.15-.25-.21.17 0 .26-.07.48 0 0 .06 0 0-.09 0s.26 0 .38.18v-.15c.22 0 .26.21.38.25 0-.27-.45-.66-.49-.91.14.1.29.19.44.27.22 0-.34-.59-.29-.76.13.11 0 .13.08.22.37-.42.86-.72 1.4-.85l-.4-.41.38.1c.59-.24.5-.77.64-1.28.05-.15.37.14.54.17.25-.24-.22-.67-.13-1 .11.13.46.47.56.37-.12-.11-.31-.27-.18-.28l.11.13c.26.08.11-.12.29-.19.16-.24 0-.7-.36-1.27.2-.18.47.38.6.41-.27 0 0 .16.14.31-.07-.17-.08-.32.27-.13.06-.12.1-.16 0-.42.07.13-.14 0-.25-.11.18 0 .23-.32.62 0 .38-.56.79-1.09 1.23-1.6-.13-.25-.13 0-.23-.16-.16-.34.22 0 .1-.26l.17.21c.16-.13-.09-.61-.16-.92.22.22.3 0 .34.29 0-.11 1.16.69 1 .46l-1.06-.75c-.1-.09 0-.14 0-.19.25.1.55.22.58.18.27.19.13.25.07.31.41.36.44 0 .75.43 0-.18-.23-.16-.32-.37h.18-.21c0-.2-.34-.5 0-.42l-.3-.48c.34.27.14-.05.28-.05l.17.23c.06-.1.15-.09.31 0 .25.3-.13 0 .12.28h.18c-.19-.16-.28-.34-.45-.37-.27-.39-.51-.69-.28-.89.4.18.18.36.53.59.34-.11-.56-1-.4-1.1.16-.1 0-.31.13-.5.16.25.33.08.56.23l.16.27c0-.11.11-.09.25.07-.3-.25-.06-.47-.09-.71l-.26-.21c0-.16 0-.44.13-.48.06-.22-.18-.38-.33-.74.29.17.55.4.76.66-.16-.08-.15 0-.29 0 0 .38.41 1 .12 1.07.51.62 0-.19.34-.09v.07a.85.85 0 0 0 .29.62c0-.16-.51-.62-.14-.52-.07-.26.46.09.56.07-.15-.27-.61-.71-.36-.79l.25.38c.18-.17-.39-.54-.21-.69-.1 0-.26-.36-.38-.26-.11-.22 0-.38.16-.38 0-.07-.1-.11-.21-.22-.32-.11.06.37-.35.15l.28.4a.9.9 0 0 1-.59-.47s0 .11-.06.07c-.54-.48.3.07-.11-.39v.1c-.37-.29-.14-.45 0-.51a1 1 0 0 1 .65.25v.23c.27.12.06-.28.14-.35l.1.06-.07-.06s.07 0 .14.05 0-.3.17-.29l-.22-.21.11.13c-.07.06-.29 0-.4-.2-.11-.2.43.1.65.25.3.36-.14.14-.09.32.37.28.17-.11.53 0 .3.42-.17.16.13.52.17 0 0-.33.16-.36.15.18.05.31.27.52h.18c-.17.21.47.41.42.65.21.07-.2-.39.12-.26-.18-.13-.54-.34-.59-.57h.21c.22.12.27.49.49.57v-.24c-.1-.1-.21-.1-.32-.28.17 0-.31-.52-.39-.76.07 0 .15-.08.29 0-.15-.47.06-.65-.08-1.09.11.31.36.37.57.48-.07.15.26.49.47.71 0-.1-.25-.5-.4-.58.25 0-.14-.32.18-.18s.29.37.43.48c.14-.1-.36-.45-.15-.5 0 0 0 .08.11.13s.07-.23-.07-.42c.49.38.17-.25.56.2.07-.28-.25-.21-.35-.4-.1-.19.17-.23.28-.2 0 0 0 .21-.07.18l.32.27c.42 0-.5-.83 0-.75 0 .26.18.26.32.53 0-.11.21-.17-.11-.31.1-.02.22-.02.33 0-.02-.2-.08-.4-.17-.58.14-.07.43.08.6.17.05-.44.61-.25.65-.71.25-.12-.45-.35-.23-.52.3.42.35.16.59.3.42 0 .21-.65.67-.58.07.09.13.2.09.25.29 0 .37-.22.55-.33L41 25c.52.11.45-.47.65-.79 0 .07.13.23.15.3.21 0 .48-.13.3-.57.47.27 0-.21.53 0 .07.06 0 .09 0 .11.21.06.25 0 .39-.07 0-.44-.28-1 .12-1.06.42.55-.07.27.24.72 0-.14 0-.29.12-.21.12.25.09.14.21.37.12.23-.19-.76-.15-.71-.07-.11-.14-.15-.18-.09-.18-.4.25-.24.29-.47 0 0-.27 0-.4-.29.27 0 0-.6-.08-.92.36.14.21.57.52.94.2.16.36.37.46.61.21 0 .08-.44.16-.62l.07.12c.16-.18 0-.82.35-.7l-.18-.07c0-.09.11-.12 0-.39.12.19.36.28.41.47-.32-.67.19-.67-.08-1.31.15.16.26.34.34.54-.16 0-.28-.06-.18.23.09-.08.27 0 .35.18-.15-.45 0-.76-.19-1.17.23.12.4.31.52.54.19-.4-.79-.89-.42-1.11.36.2.1.52.4.48v.08c.68.72-.26-.66-.05-.75.31.43.07.4.4.64.1-.22-.24-.93 0-.9l.09.21c.09-.1.36-.14.44-.25.06.09 0 .09 0 .13.31 0 0-.29.3-.08l-.08-.25c-.18-.11-.47-.23-.42.1 0-.33-.52-.47-.7-.89l.07.16a2.28 2.28 0 0 0-1.62-.37c.06.61-.51.06-.55.53.3.55 0 .14-.12.38.07-.14-.24-.41-.36-.43.03.1.03.22 0 .32-.16-.15-.7-.38-.56 0-.24-.08-.08-.18-.13-.31-.23-.23 0 .28-.12.13v-.09c-.18.15-.39.09-.63.16.33.52-.07.33 0 .57-.08-.19-.24-.11-.36-.17l.15.44c.12.39-.31-.12-.32.15l.1.07c0 .22-.46.11-.75-.09-.19 1.63-1.81.48-2.55 1.5.06.19.24.21.36.46 0 .13-.09.13-.17.2.18.07 0-.08.14.06v-.24l.1.12c0-.08 0-.22.06-.24 0 .19.27.56.06.51a.2.2 0 0 1 0-.13c-.11 0 0 .21-.12.18s0 .08-.17-.07h-.42c.21.52-.27.25-.34.25-.23-.34.09-.23-.09-.59l-.29-.16.2.26h-.19v-.06c.06.11.13.22 0 .17-.13-.05-.1-.09-.1-.12v.22c-.16-.31-.15 0-.38-.32-.44.11-.06.73-.67.56.16.1.31.54.18.55a.34.34 0 0 1-.24-.22v.24c-.53-.33-.41.07-.74.09l-.1-.14c.06.22.08.41-.07.46l-.2-.27c-.3-.06.37.62.07.59.25.27.46.33.71.57-.28-.24-.48-.15-.26 0-.05.23-.11.08-.18 0l.06.25c-.11.08-.35-.33-.46-.52.17.38-.11.27-.26.33l.02-.04-.18.09c.1.29 0 .43-.24.43l-.24-.43c-.26-.1.07.16.1.24 0 .3-.22.08-.47 0 .13.48-.97-.25-.65.44ZM22.27 41.49h.08c.04.11.09.17-.08 0Zm.88-1.28c.07.25-.1.09-.22 0 .21-.1.13-.26.35-.32-.1 0-.21-.09-.29-.12-.08-.03.18 0 .4.06.38.35-.52.31-.24.38Zm.44 4.14-.08-.07.08.07Zm0-1c.07.02.14.02.21 0-.09 0-.19-.03-.18.01l-.03-.01ZM25 42.1c.19.06.18 0 .18-.13a.27.27 0 0 0-.18.13Zm6.17-9.27c0 .1.11.3.29.32-.11-.14.18 0 0-.21l-.29-.11Zm2.36-5a2.6 2.6 0 0 0 .52.52c.06 0 .13 0 .11-.06-.48-.5-.49-.64-.63-.49v.03Z" fill="#6F71F6"/><path d="M34.12 28.26a.41.41 0 0 0-.2 0 .19.19 0 0 0 .2 0Z" fill="#6F71F6"/><path d="M20.36 46.05v-.07h-.26c.12.26.37.38.65.55-.21-.27 0-.29 0-.52l-.39.04Z" fill="#6F71F6"/><path d="M22.35 46.86c.1.02.22.02.33 0l-.17-.1-.16.1Z" fill="#6F71F6"/><path d="m24.07 45.42-.22.07c.15.13.48.09.22-.07Z" fill="#6F71F6"/><path d="m20.69 44.6.16.17c.19 0 .22-.1 0-.23.08.16-.12-.03-.16.05Z" fill="#6F71F6"/><path d="M24.3 45.05c-.32-.22.23-.06-.08-.26.08.1-.22.08.08.26Z" fill="#6F71F6"/><path d="M21 43.5c-.35-.1-.1.11-.23.17 0-.08.41-.02.23-.17Z" fill="#6F71F6"/><path d="M23.72 43.77c.24.13.2.2.1.23-.09.04-.17-.14-.19-.19.07.11.12.23.16.35a1 1 0 0 1 .7.1c-.2-.24-.47-.4-.77-.49Z" fill="#6F71F6"/><path d="M21.05 43.25c-.14 0-.39 0-.42.07.18.07.45.16.46 0l.27.19c.26.03-.36-.13-.3-.26Z" fill="#6F71F6"/><path d="M24.61 43.7h-.16c.17.22 0 .3.31.55a.57.57 0 0 0-.15-.55Z" fill="#6F71F6"/><path d="m21.78 43.12-.39-.22c-.12.09.13.06.2.15.09.09-.12 0-.06.1 0-.15.33.16.25-.03Z" fill="#6F71F6"/><path d="m21.53 42.53-.1-.24-.5-.1c.07.23.25.12.6.34Z" fill="#6F71F6"/><path d="M21.89 42.49h.08L21.5 42c.1.18.24.35.39.49Z" fill="#6F71F6"/><path d="M25.85 41.43c-.15-.12-.43-.13-.22-.07s.44.08.22.07Z" fill="#6F71F6"/><path d="M22.44 40.1c.16 0 0-.33 0-.48 0 .15-.24.38 0 .47Z" fill="#6F71F6"/><path d="M22.4 39.56v.06-.06Z" fill="#6F71F6"/><path d="M23.82 35.43a.06.06 0 0 0 0-.05v.05Z" fill="#6F71F6"/><path d="M23.86 35.58c-.09 0-.07.2.09.34a1.27 1.27 0 0 0-.13-.49s-.16.02.04.15Z" fill="#6F71F6"/><path d="M24.5 34.83c.07.11 0 .13.14.22s-.02-.18-.14-.22Z" fill="#6F71F6"/><path d="M32.82 33.27c.13 0 .11-.09-.12-.26-.06.08.1.15.12.26Z" fill="#6F71F6"/><path d="m32.73 32.9.11.07.2.1-.3-.18Z" fill="#6F71F6"/><path d="M33.42 32.71a.3.3 0 0 1 .07.1s-.01-.09-.07-.1Z" fill="#6F71F6"/><path d="m33.4 32.81.11.1v-.07c0-.07-.05.01-.11-.03Z" fill="#6F71F6"/><path d="m33.58 32.61-.4-.2c.08.22.26 0 .52.43l-.12-.23Z" fill="#6F71F6"/><path d="M33.76 32.24c.18 0-.22-.56.2-.26 0-.41-.68-.52-.58-.91-.42.07.61.78.2.81.33.12.12.24.18.36Z" fill="#6F71F6"/><path d="M33.09 31.71c.18.18.29.09.19 0-.05-.04-.36-.23-.2 0Z" fill="#6F71F6"/><path d="m34 31.64.2.06-.1-.13-.1.07Z" fill="#6F71F6"/><path d="m34.31 31.44.16.27c-.07-.1.04-.19-.16-.27Z" fill="#6F71F6"/><path d="M34.91 31.33c.13 0-.31-.52-.33-.29.12.07.36.16.33.3Z" fill="#6F71F6"/><path d="M34.94 29.76s0 .14.07.23v-.21l-.07-.02Z" fill="#6F71F6"/><path d="M33.74 28.62c-.34-.24-.09.14-.27.12.15-.03.18.02.27-.12Z" fill="#6F71F6"/><path d="M35.49 30c.09.15 0 .12-.08.13.18.19.22.07.08-.13Z" fill="#6F71F6"/><path d="M35.57 29.75c.16.08.16.17.27.23.11.06.28-.06.16-.26a3.92 3.92 0 0 1-.63-.6c0 .24.46.84 0 .5l.4.61c.17-.02-.3-.44-.2-.48Z" fill="#6F71F6"/><path d="m34.33 29.06.25.1a.42.42 0 0 1-.18-.33c-.4-.35-.05.17-.07.23Z" fill="#6F71F6"/><path d="m36.06 28.8.07-.23-.07.03v.2Z" fill="#6F71F6"/><path d="m36.28 28.83.1.11-.07-.3-.03.2Z" fill="#6F71F6"/><path d="M36.56 28.81h-.03V29l.03-.18Z" fill="#6F71F6"/><path d="m37 28.6-.18-.14c0 .07-.25 0 0 .18-.12-.1-.02-.16.18-.05Z" fill="#6F71F6"/><path d="M34.19 23.43c.07.12.16.23.28.3l-.21-.32s0 .08-.07.02Z" fill="#6F71F6"/><path d="m34.8 23.7-.16-.43c-.2.08 0 .35-.06.52.14.05 0-.25.15-.22l.07.13Z" fill="#6F71F6"/><path d="M37.54 21.8c.16.22.17.17.2.4 0-.25.16-.3.28-.45-.13-.12-.2-.44-.22-.34l-.06.27-.1-.17c-.25-.07.12.3-.1.3Z" fill="#6F71F6"/><path d="M46.14 19.3c.06.11.13.21.22.3.03-.19-.23-.27-.22-.3Z" fill="#6F71F6"/><path d="M51.62 66.73c.33.14.12 0 .1-.06l-.1.06Z" fill="#6F71F6"/><path d="M51.71 66.67h.07c-.06-.04-.07-.02-.07 0Z" fill="#6F71F6"/><path d="M52.08 66.25c.24.18-.17.22.23.39.28-.04.22-.25-.23-.39Z" fill="#6F71F6"/><path d="m51.77 66.34.22.08-.33-.19.11.11Z" fill="#6F71F6"/><path d="m51.54 66.36.09.01-.2-.22.1.21Z" fill="#6F71F6"/><path d="M52.35 65.91v.13c-.34 0-.4-.18-.62-.17 0 .14.63.22.48.37.3.06.07-.28.52-.13.21-.1-.24-.1-.38-.2Z" fill="#6F71F6"/><path d="M51.85 58.4h.05c-.05-.02-.09-.03-.05 0Z" fill="#6F71F6"/><path d="M52.12 56.42h.12-.13Z" fill="#6F71F6"/><path d="M52.34 59.82a.4.4 0 0 0-.13 0c.07.04.12.03.13 0Z" fill="#6F71F6"/><path d="m57.93 48.7.12.05-.12-.07v.01Z" fill="#6F71F6"/><path d="M52.11 54.1a.2.2 0 0 0 0-.1s-.03.08 0 .1Z" fill="#6F71F6"/><path d="M51.32 56.84h.08a.1.1 0 0 0-.08 0Z" fill="#6F71F6"/><path d="M53.32 64.32c.05 0 0 0 0-.09s-.11.02 0 .1Z" fill="#6F71F6"/><path d="M53.62 63.23s.06.02 0 0Z" fill="#6F71F6"/><path d="M53.3 64.23c.2 0 .78.14.17-.1h-.09c.16 0-.08-.14-.08-.2h-.16a.48.48 0 0 1-.1.1c-.15-.03.14.1.26.2Z" fill="#6F71F6"/><path d="M52.26 59.15v-.05s-.02.02 0 .05Z" fill="#6F71F6"/><path d="M51.45 61.27c-.04-.02-.03-.01 0 0Z" fill="#6F71F6"/><path d="M52.32 59.05s.03.03 0 0Z" fill="#6F71F6"/><path d="M63.35 41c0 .06-.14 0-.2 0 .36.26.08-.18.38.1 0 0 0-.09-.07-.14l-.4-.1c.12.2.15.05.29.14Z" fill="#6F71F6"/><path d="M58.93 48.47c.18 0 .23.08.35 0a7.18 7.18 0 0 1-.94-.44v.07a2 2 0 0 1 .59.37Z" fill="#6F71F6"/><path d="M58.25 48.16h-.16.16Z" fill="#6F71F6"/><path d="M62.59 42.3h-.06c.08.04.09.03.06 0Z" fill="#6F71F6"/><path d="m57 55.9.11.1s-.03-.08-.11-.1Z" fill="#6F71F6"/><path d="M58.17 49.32h-.08.08Z" fill="#6F71F6"/><path d="M55.78 44.55c.42.21 0 0 .25 0l-.2-.16c-.09.03-.04.11-.05.16Z" fill="#6F71F6"/><path d="m63.5 41.03-.05-.02.01.01.03.01Z" fill="#6F71F6"/><path d="m57.92 48.48-.13.24h.14c-.2-.15.23-.1 0-.24Z" fill="#6F71F6"/><path d="m55.09 45.54-.27-.08c.46.47-.45.45.26 1-1 0 .75.52-.19.48h.14c-.52.87-1.37 1.68-1.25 2.73l-.18-.07c-.84 1.3-.93 2.82-1.56 4.19.13.19.57.25.75.43 0 0-.05.17-.28.09a1.05 1.05 0 0 1-.4-.22c0 .17-.37.29-.13.52h.34c.11.1 0 .16 0 .2 0 .04-.5-.1-.55-.17.64.55-.4.13-.19.48a5 5 0 0 1 1.43 1.1l-.2.05c0-.14-.47-.14-.38-.31-.24.09 0 .31-.15.42.16.02.3.08.43.18-.12.06-.44 0-.5.06l-.17-.17c-.26 0 0 .15 0 .23-.27-.07-.37.06-.66-.06.33.25.1.24.29.45.33-.06.34.15.57.21v-.21c-.26.19 0-.09-.49-.22.25 0 .7.4.69.19.16.3-.06.28.25.63 0-.17.29.12.45.09 0 .18-.17 0-.48 0 0 .1-.29 0 0 .25-.19.11-.34-.13-.55-.11-.29-.16.53-.31-.49-.59 0-.08-.34-.3-.28-.41-.16.06-.54.1-.35.3l.56.18c0 .11.36.25.29.3-.07.05-.41-.1-.39 0 .02.1.08 0 .18 0 .1 0 .37.3.43.5.21-.07.43-.1.65-.12.39.16 0 .11.06.2a.21.21 0 0 0-.15 0l.17.14c-.23.12-.57-.2-.81-.12-.24.08.15.2-.06.21h.1c0 .11 0 .2.26.32-.14 0 0 .09.1.15s.41.32-.09.25a.37.37 0 0 1-.42.07l-.18.15-.38-.14c0 .21.28.26.65.49-.27.06-.15.32 0 .45s0 0 0 .07h.17c-.06.13.15.17.13.26-.02.09.06 0 0 0h-.05v-.05h-.13c-.45 0 .18.23 0 .3 0 0-.7 0-.37.09l.09.09h-.07.07c.1.06.23.13.15.11l-.12.14c-.06 0 0 .07 0 .12h-.17c0 .07-.09 0-.13 0-.62 0 .19.41-.36.49.18.06.36.1.55.1.18.1.34.23.48.38-.4 0-.82.2-1.34 0-.1.17.34 0 .5.18a.91.91 0 0 1 .49 0c.29.06.33.25.24.28l-.41-.16c.1.21.73.36 1.12.58-.21.09-.56-.1-.94-.17l.07.17-.31-.09c0 .12.34.22.18.31-.27-.17-.34.11-.7-.13-.12.05.47.23 0 .16.31.14.18 0 .29 0 .49.1.19.22.29.34-.25-.06-.28-.14-.47-.08.18.07.31.17.07.17.31.08 0 .13 0 .18a.73.73 0 0 1 .59 0c.11.08.16.14.09.24h.17c.42.22-.38.07-.27.24a2.5 2.5 0 0 0-.38-.25c.16.12.3.27.44.42h-.48c.22.08-.06.12.25.21-.24.08-.34-.22-.56-.29-.26.12.48.28 0 .32l-.28-.13c0 .05.1.21 0 .17h.08c.62.2.37.38 1 .53l.06-.07c.09.15.51.36.26.39a1.18 1.18 0 0 1-.58-.25c-.07.1.68.28.58.39.18-.02.35.02.5.12.07-.07.23-.19-.05-.24h-.07c-.1-.04-.2-.09-.29-.15 0-.11.31 0 .44 0 .14-.15-.64-.19-.58-.34h.13c-.15-.12-.14-.25-.52-.38.43 0-.12-.23.15-.24.91.24-.14.26.34.49.21 0 .42.16.62.26l-.33-.38c.13 0 .61.06.29-.08-.07-.14-.45-.21-.3-.27l.28.1c.11-.06-.19-.12-.25-.2.1-.07.36.14.48.1-.33-.2.13-.13.13-.22-.53-.11-.61-.54-1.12-.48l-.29-.3c.28 0 .68.34 1.13.4l-.06.16c.65.15-.33-.45.42-.36 0-.08 0-.08.32-.16l-.58-.13c.2-.04.39-.04.58 0a.12.12 0 0 1 0-.14c.07.02.13.06.18.11.33 0 .22 0 .06-.1s-.11-.12-.09-.17l.2.11a.43.43 0 0 0-.19-.14v-.07a2 2 0 0 0-.62 0c.28-.14.2-.33.72-.36.17.05.35.18.38.17.03-.01-.16-.24-.41-.3h.34a.16.16 0 0 0 .14 0c-.45-.15-.18-.25-.37-.34a.11.11 0 0 0-.07.12c-.28-.16-.61-.32-.35-.3.25.21.51 0 .58.23.61 0-.39-.19-.15-.27h.26c.32.11.12.19.25.21v-.08c.22.14 0 .33.32.58l.27-.24c-.29-.48.3-.81-.33-1.34l-.21-.08h.08L54.2 61c.33 0 .44-.1.71-.13-.16 0-.32-.01-.47-.06-.33-.11-.46-.17-.31-.24.15-.07.21.14.42.11a.34.34 0 0 1-.3-.13c.17 0 .23-.1.47 0h-.07c-.07 0 .24 0 .41.09v-.12c.21 0 .29.13.42.14-.1-.22-.61-.47-.72-.68l.49.16c.19-.08-.49-.44-.49-.59.15.06.07.1.14.16.32-.36.44-.71 1.06-1l-.5-.28h.39c.48-.31.23-.74.2-1.19 0-.14.4 0 .57 0 .14-.25-.43-.51-.47-.81.15.09.59.3.65.2-.15-.07-.38-.17-.27-.21l.16.09c.26 0 0-.12.2-.22s-.24-.58-.76-1c.12-.19.56.22.69.22-.24.08.06.13.23.22-.12-.12-.18-.25.21-.16 0-.12 0-.16-.17-.35.11.09-.11.07-.27 0 .16 0 .1-.31.57-.14a12 12 0 0 1 .54-1.63c-.21-.18-.12 0-.27-.07-.15-.07.2 0 0-.25l.25.14c.09-.15-.33-.48-.51-.72.29.13.29 0 .42.15 0-.1 1.32.28 1.07.12l-1.25-.34c-.12 0 0-.13-.09-.15.2.03.4.03.59 0 .32.08.21.17.18.23.51.2.41-.09.85.17 0-.16-.27-.08-.44-.22l.15-.08h-.2c-.12-.15-.5-.33-.17-.36l-.45-.31c.41.13.11-.07.23-.11l.24.14c0-.1.1-.11.27-.11.34.18-.11 0 .22.19h.15c-.23-.09-.38-.22-.55-.19-.39-.25-.73-.43-.61-.66.43 0 .31.24.71.34.26-.18-.91-.67-.81-.8.1-.13-.13-.24-.09-.44.24.16.33 0 .6 0l.25.17c-.06-.08.06-.1.25 0-.36-.12-.25-.37-.37-.56l-.32-.09c-.07-.14-.21-.35-.09-.43 0-.19-.32-.26-.61-.5.35.05.69.15 1 .31-.17 0-.11.09-.23.13.19.29.78.69.56.83.72.37 0-.16.26-.16h.06c.12.2.3.35.52.42 0-.15-.71-.36-.34-.39-.17-.19.45-.06.53-.1-.25-.18-.85-.41-.67-.54l.39.23c.09-.19-.57-.32-.48-.5-.08.05-.39-.22-.45-.1-.2-.15-.19-.3 0-.35 0-.06-.14-.06-.28-.12-.33 0 .22.28-.23.22l.41.25c-.26.01-.51-.07-.72-.22 0 0 .06.09 0 .08-.69-.24.29 0-.27-.29v.09c-.46-.13-.32-.32-.26-.4.23-.07.47-.07.69 0l.08.2c.28 0-.08-.24 0-.32h.11-.09.15c0-.07-.11-.26 0-.29l-.29-.1.16.07c0 .07-.25.09-.44 0s.42 0 .68 0c.42.2-.06.15.06.28.45.12.1-.14.45-.19.45.25-.08.18.34.39.13-.1-.19-.26 0-.35.21.1.18.24.47.34h.16c0 .22.61.19.66.39.22 0-.35-.25 0-.25-.21 0-.62-.1-.76-.28l.18-.06c.25 0 .45.31.68.31l-.12-.18a1.17 1.17 0 0 1-.41-.14c.18 0-.5-.32-.67-.49 0-.06.09-.11.26-.07-.35-.33-.25-.54-.58-.85a1 1 0 0 0 .72.2c0 .15.45.33.73.43 0-.09-.45-.32-.61-.34.23-.06-.27-.21.07-.2.18 0 .42.2.59.25.08-.13-.52-.25-.35-.36.04.04.1.06.15.07.12 0 0-.2-.26-.31.61.15 0-.26.58 0-.07-.25-.31-.1-.49-.21-.18-.11 0-.24.15-.25.15-.01.13.16 0 .17l.4.11c.37-.13-.81-.5-.38-.6.15.2.27.16.52.33-.08-.07.1-.21-.24-.22a.6.6 0 0 1 .26-.14 1.7 1.7 0 0 0-.43-.41c.09-.1.4-.08.6-.07-.18-.36.39-.4.2-.79.16-.18-.55-.12-.44-.33.46.23.37 0 .65 0 .35-.16-.16-.6.26-.71.1 0 .21.11.2.16.23-.12.2-.31.29-.46h.06c.49-.1.13-.54.14-.86l.28.17c.16-.09.33-.28-.06-.56.53 0-.09-.17.45-.19.09 0 .07 0 .08.08.2 0 .18-.13.28-.21-.19-.36-.77-.69-.47-.88.64.27.08.24.59.47-.09-.11-.2-.21 0-.22.12.08.24.15.37.21.19 0-.56-.52-.5-.49-.12-.05-.2-.06-.2 0-.36-.24.08-.28 0-.48 0 0-.21.11-.49-.07.22-.11-.37-.44-.56-.68.36 0 .47.36.93.53.25.04.49.14.7.28.16-.1-.17-.37-.21-.55l.12.06c0-.2-.43-.64-.11-.67h-.18c-.06-.06 0-.14-.21-.3.2.1.44.07.59.19-.63-.38-.22-.59-.81-1 .2.06.4.15.59.27-.11.09-.26.07 0 .25 0-.1.23-.09.38 0-.37-.29-.43-.59-.82-.83.25 0 .5.08.71.2-.08-.39-1.12-.35-1-.67.41 0 .39.35.6.2v.06c1 .27-.58-.39-.47-.55.49.2.29.28.69.32 0-.21-.74-.61-.51-.69l.19.12c0-.12.2-.26.21-.38.09 0 .07 0 .09.08.27-.09-.21-.19.19-.18l-.21-.15c-.2 0-.5 0-.27.25-.23-.22-.68-.14-1.07-.38l.16.1a2.05 2.05 0 0 0-1.48.39c.4.42-.35.25-.11.62.55.29.09.09.12.33 0-.13-.42-.21-.53-.19.08.06.15.15.2.24-.21 0-.77 0-.43.24-.23 0-.17-.11-.27-.19-.31-.08.18.2 0 .15a.26.26 0 0 1-.08-.06c-.06.18-.25.22-.41.37.55.26.13.27.3.44-.17-.11-.26 0-.39 0l.37.28c.31.25-.3 0-.17.23h.12c.12.16-.32.25-.65.21.72 1.31-1.19 1-1.27 2 .15.13.3.08.54.23v.21c.18 0 0-.07.14 0l-.1-.19.14.06c0-.07-.13-.17-.07-.21.11.14.51.34.31.38a.22.22 0 0 1-.09-.1c-.07.08.13.17 0 .18-.13.01 0 .08-.17 0l-.33.16c.44.33-.1.29-.16.31-.36-.18 0-.22-.38-.43h-.31l.29.13-.13.09h-.06c.11.06.22.13.1.12a.37.37 0 0 1-.14-.06l.13.16c-.29-.18-.13 0-.48-.12-.3.23.32.59-.27.65.18 0 .53.32.43.37a.42.42 0 0 1-.32-.1l.14.19c-.61-.1-.31.18-.58.3l-.15-.08c.16.15.27.29.17.38l-.31-.15c-.27 0 .62.37.36.44.34.13.55.11.88.23-.36-.11-.48 0-.22.09.08.2 0 .1-.14.08l.18.17c-.06.09-.46-.15-.64-.27.33.25 0 .25-.07.34l-.14-.11-.12.12c.23.2.2.34 0 .41l-.41-.26c-.27 0 .14.1.2.15.17.23-.15.13-.43.11.15.63-1.13.37-.54.82Zm-3.41 15.74h.08c.06.07.13.12-.08 0Zm.49-1.17c.14.2-.07.09-.2.06.17-.11 0-.23.24-.31l-.3-.06s.15-.07.39 0c.44.2-.41.29-.13.31Zm1.49 3.38h-.1.1Zm-.21-.83c.07.02.14.02.21 0-.13-.02-.23-.04-.21 0Zm1-1.26c.2 0 .16-.07.14-.14a.3.3 0 0 0-.15.14h.01Zm2.69-9a.51.51 0 0 0 .38.2c-.15-.1.16-.06-.08-.18l-.31.01.01-.03Zm0-4.71c.16.09.33.16.51.22h.16s.1 0 .06-.08c-.62-.16-.69-.27-.74-.11l.01-.03Z" fill="#6F71F6"/><path d="M57.84 47.92h-.2a.23.23 0 0 0 .2 0Z" fill="#6F71F6"/><path d="m50.92 65.27-.06-.06h-.21c.22.18.47.32.75.39-.26-.2-.1-.24-.14-.43l-.34.1Z" fill="#6F71F6"/><path d="M53 65.75c.1.02.22.02.33 0l-.18-.07-.15.07Z" fill="#6F71F6"/><path d="m54.37 64.34-.2.09c.15.09.48.01.2-.09Z" fill="#6F71F6"/><path d="m50.93 64 .19.13c.18 0 .19-.11 0-.19.06.15-.12.06-.19.06Z" fill="#6F71F6"/><path d="M54.51 64c-.36-.15.2-.09-.14-.22.09.07-.23.11.14.22Z" fill="#6F71F6"/><path d="M50.94 63.1c-.36-.06-.07.1-.18.16-.11.06.42-.06.18-.16Z" fill="#6F71F6"/><path d="M53.65 63c.26.08.23.13.15.17a.94.94 0 0 1-.23-.13c.18.16.13.16.24.28.23-.07.47-.07.69 0a1.89 1.89 0 0 0-.85-.32Z" fill="#6F71F6"/><path d="M51 62.88c-.13 0-.38 0-.4.11.2 0 .48.08.46 0l.3.12c.22-.06-.46-.1-.36-.23Z" fill="#6F71F6"/><path d="M54.48 62.81h-.15c.22.17.06.26.43.42.02-.12-.11-.3-.28-.42Z" fill="#6F71F6"/><path d="m51.63 62.7-.43-.14c-.1.08.15 0 .24.1-.07 0-.12 0 0 .08-.08-.13.3.1.19-.05Z" fill="#6F71F6"/><path d="m51.25 62.23-.15-.18h-.51c.13.16.27.05.66.18Z" fill="#6F71F6"/><path d="M51.58 62.16h.09l-.59-.38c.15.15.32.28.5.38Z" fill="#6F71F6"/><path d="M55.06 60.7c-.17-.08-.44 0-.22 0s.43-.03.22 0Z" fill="#6F71F6"/><path d="M51.47 60.11c.15 0-.06-.27-.16-.38.06.12-.1.32.16.38Z" fill="#6F71F6"/><path d="M51.42 56.22c-.07 0 0 .17.2.25a1.2 1.2 0 0 0-.28-.36s-.14.04.08.11Z" fill="#6F71F6"/><path d="M51.76 55.5c.11.07 0 .11.21.15.21.04-.07-.14-.21-.15Z" fill="#6F71F6"/><path d="M58.79 52.37c.12 0 .06-.1-.21-.18-.02.08.15.09.21.18Z" fill="#6F71F6"/><path d="m58.56 52.08.13.04.22.02-.35-.06Z" fill="#6F71F6"/><path d="m59.12 51.74.1.07s-.05-.07-.1-.07Z" fill="#6F71F6"/><path d="m59.14 51.83.14.06v-.06s-.07.02-.14 0Z" fill="#6F71F6"/><path d="m59.22 51.62-.44-.06c.16.17.25 0 .64.22l-.2-.16Z" fill="#6F71F6"/><path d="M59.22 51.26c.16 0-.42-.4.07-.27-.16-.34-.8-.24-.89-.59-.34.18.87.48.52.62.33-.02.2.16.3.24Z" fill="#6F71F6"/><path d="M58.4 51c.24.1.3 0 .15-.1s-.39-.03-.15.1Z" fill="#6F71F6"/><path d="M59.19 50.7h.21l-.15-.08-.06.08Z" fill="#6F71F6"/><path d="m59.4 50.45.23.18c-.09-.07-.03-.17-.24-.18Z" fill="#6F71F6"/><path d="M59.88 50.18c.11 0-.5-.33-.41-.14.13.03.38.03.41.14Z" fill="#6F71F6"/><path d="M59.22 48.9s0 .12.17.16l-.08-.18-.09.01Z" fill="#6F71F6"/><path d="M57.67 48.32c-.4-.1 0 .13-.18.17.12-.07.17-.04.18-.17Z" fill="#6F71F6"/><path d="M59.83 49c.15.1 0 .11 0 .13.17.02.17-.13 0-.13Z" fill="#6F71F6"/><path d="M59.78 48.69c.17 0 .21.1.33.11.12.01.22-.13 0-.27a3.83 3.83 0 0 1-.82-.29c.08.2.77.55.2.41l.62.38c.18-.03-.4-.27-.33-.34Z" fill="#6F71F6"/><path d="M58.38 48.5h.26a.45.45 0 0 1-.3-.22c-.5-.15.03.16.04.22Z" fill="#6F71F6"/><path d="m59.79 47.78-.05-.21-.05.04.1.17Z" fill="#6F71F6"/><path d="m59.99 47.73.14.05-.21-.22.07.17Z" fill="#6F71F6"/><path d="m60.22 47.63-.03.01.09.14-.06-.15Z" fill="#6F71F6"/><path d="M60.45 47.32h-.22c0 .06-.22 0 .06.16-.08-.13 0-.2.16-.16Z" fill="#6F71F6"/><path d="M55.66 44.08a1 1 0 0 0 .38.15l-.33-.19s.04.06-.05.04Z" fill="#6F71F6"/><path d="m56.31 44.11-.35-.29c-.12.12.2.27.2.42.01.15-.1-.19 0-.21l.15.08Z" fill="#6F71F6"/><path d="M57.65 41.75c.25.12.22.07.35.24-.1-.2 0-.28 0-.44-.17 0-.4-.27-.36-.19l.1.23-.18-.1c-.22.03.28.2.1.26Z" fill="#6F71F6"/><path d="M63.16 36.58c.11.06.24.1.36.14-.1-.16-.34-.11-.36-.14Z" fill="#6F71F6"/></svg>